<svg xmlns="http://www.w3.org/2000/svg" width="518" height="254" viewBox="0 0 518 254" role="img" aria-label="stats"><style>
.bg{fill:#ffffff;stroke:#d0d7de;stroke-width:1}
.card{fill:#f6f8fa;stroke:#d0d7de;stroke-width:1}
.title{font-family:'Segoe UI','PingFang SC','Microsoft YaHei',Helvetica,Arial,sans-serif;font-size:15px;font-weight:600;fill:#1f2328}
.label{font-family:'Segoe UI','PingFang SC','Microsoft YaHei',Helvetica,Arial,sans-serif;font-size:13px;fill:#57606a}
.value{font-family:'Segoe UI','PingFang SC','Microsoft YaHei',Helvetica,Arial,sans-serif;font-size:13px;font-weight:600;fill:#1f2328}
.muted{font-family:'Segoe UI','PingFang SC','Microsoft YaHei',Helvetica,Arial,sans-serif;font-size:11px;fill:#8c959f}
.repo{font-family:'Segoe UI','PingFang SC','Microsoft YaHei',Helvetica,Arial,sans-serif;font-size:14px;font-weight:600;fill:#0969da}
.desc{font-family:'Segoe UI','PingFang SC','Microsoft YaHei',Helvetica,Arial,sans-serif;font-size:11px;fill:#57606a}
.meta{font-family:'Segoe UI','PingFang SC','Microsoft YaHei',Helvetica,Arial,sans-serif;font-size:11px;fill:#57606a}
@media (prefers-color-scheme:dark){
.bg{fill:#0d1117;stroke:#30363d}
.card{fill:#161b22;stroke:#30363d}
.title{fill:#c9d1d9}.label{fill:#8b949e}.value{fill:#e6edf3}
.muted{fill:#6e7681}.repo{fill:#58a6ff}.desc{fill:#8b949e}.meta{fill:#8b949e}
}
</style><rect class="bg" x="0.5" y="0.5" width="517" height="253" rx="10"/><rect class="card" x="14" y="14" width="238" height="106" rx="8"/><text class="repo" x="28" y="40">LambdaJoker</text><text class="desc" x="28" y="60">AI Agent developer - Go / Pyth…</text><text class="desc" x="28" y="76">on / Java / JavaScript</text><circle cx="33" cy="98" r="5" fill="#3572A5"/><text class="meta" x="44" y="102">Python</text><text class="meta" x="132" y="102">★ 0</text><text class="meta" x="182" y="102">⑂ 0</text><rect class="card" x="266" y="14" width="238" height="106" rx="8"/><text class="repo" x="280" y="40">DeepSeek-Harness-Core</text><text class="desc" x="280" y="60">DeepSeek Harness Core（DHC）· …</text><text class="desc" x="280" y="76">AI 人格核心进化插件</text><circle cx="285" cy="98" r="5" fill="#8b949e"/><text class="meta" x="296" y="102">—</text><text class="meta" x="384" y="102">★ 0</text><text class="meta" x="434" y="102">⑂ 0</text><rect class="card" x="14" y="134" width="238" height="106" rx="8"/><text class="repo" x="28" y="160">TripAgent</text><text class="desc" x="28" y="180">This is city travel trace plan…</text><text class="desc" x="28" y="196">.</text><circle cx="33" cy="218" r="5" fill="#f1e05a"/><text class="meta" x="44" y="222">JavaScript</text><text class="meta" x="132" y="222">★ 0</text><text class="meta" x="182" y="222">⑂ 0</text><rect class="card" x="266" y="134" width="238" height="106" rx="8"/><text class="repo" x="280" y="160">ChefAgent</text><text class="desc" x="280" y="180">A smart AI kitchen agent that …</text><text class="desc" x="280" y="196">acts as your personal professi…</text><circle cx="285" cy="218" r="5" fill="#3572A5"/><text class="meta" x="296" y="222">Python</text><text class="meta" x="384" y="222">★ 0</text><text class="meta" x="434" y="222">⑂ 0</text></svg>
